<svg xmlns="http://www.w3.org/2000/svg" width="1200" height="800" viewBox="0 0 1200 800">
  <rect x="0" y="0" width="1200" height="800" fill="#fafafa"/>
  <!-- Header -->
  <rect x="20" y="20" width="1160" height="70" fill="#f0f0f0" stroke="#333" stroke-width="3"/>
  <text x="40" y="65" font-family="monospace" font-size="36" fill="#222">DD · Digital Downloads</text>
  <text x="700" y="65" font-family="monospace" font-size="22" fill="#222">Home | Catalog | Cart | Orders | Login</text>

  <text x="60" y="120" font-family="monospace" font-size="36" fill="#222">Your Cart</text>

  <!-- Table -->
  <rect x="60" y="160" width="1080" height="360" fill="none" stroke="#333" stroke-width="3"/>
  <text x="80"  y="190" font-family="monospace" font-size="22" fill="#222">Product</text>
  <text x="620" y="190" font-family="monospace" font-size="22" fill="#222">Qty</text>
  <text x="750" y="190" font-family="monospace" font-size="22" fill="#222">Unit</text>
  <text x="880" y="190" font-family="monospace" font-size="22" fill="#222">Line</text>

  <!-- Rows -->
  <g>
    <rect x="70" y="190" width="1060" height="80" fill="#f7f7f7" stroke="#333" stroke-width="3"/>
    <text x="80" y="235" font-family="monospace" font-size="22" fill="#222">Track 1</text>
    <rect x="610" y="205" width="90" height="50" fill="#fff" stroke="#333" stroke-width="3"/>
    <text x="640" y="238" font-family="monospace" font-size="22" fill="#222">1</text>
    <text x="750" y="235" font-family="monospace" font-size="22" fill="#222">£2.99</text>
    <text x="880" y="235" font-family="monospace" font-size="22" fill="#222">£2.99</text>
    <rect x="1030" y="205" width="120" height="50" fill="#fff" stroke="#333" stroke-width="3"/>
    <text x="1050" y="238" font-family="monospace" font-size="22" fill="#222">Remove</text>
  </g>

  <g>
    <rect x="70" y="280" width="1060" height="80" fill="#f7f7f7" stroke="#333" stroke-width="3"/>
    <text x="80" y="325" font-family="monospace" font-size="22" fill="#222">Track 2</text>
    <rect x="610" y="295" width="90" height="50" fill="#fff" stroke="#333" stroke-width="3"/>
    <text x="640" y="328" font-family="monospace" font-size="22" fill="#222">1</text>
    <text x="750" y="325" font-family="monospace" font-size="22" fill="#222">£2.99</text>
    <text x="880" y="325" font-family="monospace" font-size="22" fill="#222">£2.99</text>
    <rect x="1030" y="295" width="120" height="50" fill="#fff" stroke="#333" stroke-width="3"/>
    <text x="1050" y="328" font-family="monospace" font-size="22" fill="#222">Remove</text>
  </g>

  <g>
    <rect x="70" y="370" width="1060" height="80" fill="#f7f7f7" stroke="#333" stroke-width="3"/>
    <text x="80" y="415" font-family="monospace" font-size="22" fill="#222">Track 3</text>
    <rect x="610" y="385" width="90" height="50" fill="#fff" stroke="#333" stroke-width="3"/>
    <text x="640" y="418" font-family="monospace" font-size="22" fill="#222">1</text>
    <text x="750" y="415" font-family="monospace" font-size="22" fill="#222">£2.99</text>
    <text x="880" y="415" font-family="monospace" font-size="22" fill="#222">£2.99</text>
    <rect x="1030" y="385" width="120" height="50" fill="#fff" stroke="#333" stroke-width="3"/>
    <text x="1050" y="418" font-family="monospace" font-size="22" fill="#222">Remove</text>
  </g>

  <!-- Summary -->
  <rect x="60" y="540" width="1080" height="120" fill="#f7f7f7" stroke="#333" stroke-width="3"/>
  <text x="80" y="580" font-family="monospace" font-size="22" fill="#222">Items: 3</text>
  <text x="80" y="620" font-family="monospace" font-size="22" fill="#222">Subtotal: £8.97</text>
  <rect x="930" y="560" width="210" height="60" fill="#fff" stroke="#333" stroke-width="3"/>
  <text x="960" y="600" font-family="monospace" font-size="24" fill="#222">Checkout</text>
</svg>
