<svg xmlns="http://www.w3.org/2000/svg" width="1200" height="800" viewBox="0 0 1200 800">
  <rect x="0" y="0" width="1200" height="800" fill="#fafafa"/>
  <!-- Header -->
  <rect x="20" y="20" width="1160" height="70" fill="#f0f0f0" stroke="#333" stroke-width="3"/>
  <text x="40" y="65" font-family="monospace" font-size="36" fill="#222">DD · Digital Downloads</text>
  <text x="700" y="65" font-family="monospace" font-size="22" fill="#222">Home | Catalog | Cart | Orders | Login</text>

  <text x="60" y="120" font-family="monospace" font-size="36" fill="#222">Catalog</text>

  <!-- 2x2 product cards -->
  <!-- Card loop (hand-placed) -->
  <g>
    <rect x="60" y="160" width="520" height="190" fill="#f5f5f5" stroke="#333" stroke-width="3"/>
    <rect x="80" y="180" width="140" height="140" fill="#e3e3e3" stroke="#333" stroke-width="3"/>
    <text x="240" y="210" font-family="monospace" font-size="24" fill="#222">Track Title</text>
    <text x="240" y="250" font-family="monospace" font-size="22" fill="#222">£2.99</text>
    <rect x="240" y="270" width="140" height="50" fill="#f7f7f7" stroke="#333" stroke-width="3"/>
    <text x="260" y="303" font-family="monospace" font-size="22" fill="#222">View</text>
    <rect x="390" y="270" width="160" height="50" fill="#f7f7f7" stroke="#333" stroke-width="3"/>
    <text x="400" y="303" font-family="monospace" font-size="22" fill="#222">Add to cart</text>
  </g>

  <g>
    <rect x="620" y="160" width="520" height="190" fill="#f5f5f5" stroke="#333" stroke-width="3"/>
    <rect x="640" y="180" width="140" height="140" fill="#e3e3e3" stroke="#333" stroke-width="3"/>
    <text x="800" y="210" font-family="monospace" font-size="24" fill="#222">Track Title</text>
    <text x="800" y="250" font-family="monospace" font-size="22" fill="#222">£2.99</text>
    <rect x="800" y="270" width="140" height="50" fill="#f7f7f7" stroke="#333" stroke-width="3"/>
    <text x="820" y="303" font-family="monospace" font-size="22" fill="#222">View</text>
    <rect x="950" y="270" width="160" height="50" fill="#f7f7f7" stroke="#333" stroke-width="3"/>
    <text x="960" y="303" font-family="monospace" font-size="22" fill="#222">Add to cart</text>
  </g>

  <g>
    <rect x="60" y="390" width="520" height="190" fill="#f5f5f5" stroke="#333" stroke-width="3"/>
    <rect x="80" y="410" width="140" height="140" fill="#e3e3e3" stroke="#333" stroke-width="3"/>
    <text x="240" y="440" font-family="monospace" font-size="24" fill="#222">Track Title</text>
    <text x="240" y="480" font-family="monospace" font-size="22" fill="#222">£2.99</text>
    <rect x="240" y="500" width="140" height="50" fill="#f7f7f7" stroke="#333" stroke-width="3"/>
    <text x="260" y="533" font-family="monospace" font-size="22" fill="#222">View</text>
    <rect x="390" y="500" width="160" height="50" fill="#f7f7f7" stroke="#333" stroke-width="3"/>
    <text x="400" y="533" font-family="monospace" font-size="22" fill="#222">Add to cart</text>
  </g>

  <g>
    <rect x="620" y="390" width="520" height="190" fill="#f5f5f5" stroke="#333" stroke-width="3"/>
    <rect x="640" y="410" width="140" height="140" fill="#e3e3e3" stroke="#333" stroke-width="3"/>
    <text x="800" y="440" font-family="monospace" font-size="24" fill="#222">Track Title</text>
    <text x="800" y="480" font-family="monospace" font-size="22" fill="#222">£2.99</text>
    <rect x="800" y="500" width="140" height="50" fill="#f7f7f7" stroke="#333" stroke-width="3"/>
    <text x="820" y="533" font-family="monospace" font-size="22" fill="#222">View</text>
    <rect x="950" y="500" width="160" height="50" fill="#f7f7f7" stroke="#333" stroke-width="3"/>
    <text x="960" y="533" font-family="monospace" font-size="22" fill="#222">Add to cart</text>
  </g>
</svg>
