<svg xmlns="http://www.w3.org/2000/svg" width="1200" height="800" viewBox="0 0 1200 800">
  <rect x="0" y="0" width="1200" height="800" fill="#fafafa"/>
  <!-- Header -->
  <rect x="20" y="20" width="1160" height="70" fill="#f0f0f0" stroke="#333" stroke-width="3"/>
  <text x="40" y="65" font-family="monospace" font-size="36" fill="#222">DD · Digital Downloads</text>
  <text x="700" y="65" font-family="monospace" font-size="22" fill="#222">Home | Catalog | Cart | Orders | Login</text>

  <text x="60" y="120" font-family="monospace" font-size="36" fill="#222">My Purchases</text>

  <!-- List of purchases -->
  <g>
    <rect x="60" y="160" width="1080" height="90" fill="#f7f7f7" stroke="#333" stroke-width="3"/>
    <text x="80" y="190" font-family="monospace" font-size="22" fill="#222">Order #ABCD-1000</text>
    <text x="80" y="225" font-family="monospace" font-size="22" fill="#222">Track title.mp3 · £2.99</text>
    <rect x="1000" y="180" width="140" height="45" fill="#fff" stroke="#333" stroke-width="3"/>
    <text x="1015" y="210" font-family="monospace" font-size="22" fill="#222">Download</text>
  </g>

  <g>
    <rect x="60" y="270" width="1080" height="90" fill="#f7f7f7" stroke="#333" stroke-width="3"/>
    <text x="80" y="300" font-family="monospace" font-size="22" fill="#222">Order #ABCD-1001</text>
    <text x="80" y="335" font-family="monospace" font-size="22" fill="#222">Track title.mp3 · £2.99</text>
    <rect x="1000" y="290" width="140" height="45" fill="#fff" stroke="#333" stroke-width="3"/>
    <text x="1015" y="320" font-family="monospace" font-size="22" fill="#222">Download</text>
  </g>

  <g>
    <rect x="60" y="380" width="1080" height="90" fill="#f7f7f7" stroke="#333" stroke-width="3"/>
    <text x="80" y="410" font-family="monospace" font-size="22" fill="#222">Order #ABCD-1002</text>
    <text x="80" y="445" font-family="monospace" font-size="22" fill="#222">Track title.mp3 · £2.99</text>
    <rect x="1000" y="400" width="140" height="45" fill="#fff" stroke="#333" stroke-width="3"/>
    <text x="1015" y="430" font-family="monospace" font-size="22" fill="#222">Download</text>
  </g>

  <g>
    <rect x="60" y="490" width="1080" height="90" fill="#f7f7f7" stroke="#333" stroke-width="3"/>
    <text x="80" y="520" font-family="monospace" font-size="22" fill="#222">Order #ABCD-1003</text>
    <text x="80" y="555" font-family="monospace" font-size="22" fill="#222">Track title.mp3 · £2.99</text>
    <rect x="1000" y="510" width="140" height="45" fill="#fff" stroke="#333" stroke-width="3"/>
    <text x="1015" y="540" font-family="monospace" font-size="22" fill="#222">Download</text>
  </g>
</svg>
